<svg xmlns="http://www.w3.org/2000/svg" viewBox="0 0 64 64" role="img" aria-labelledby="title">
  <title>satococoa.dev</title>
  <rect width="64" height="64" rx="14" fill="#f5f1ea" />
  <path
    d="M18 40c3.8 4 8.5 6 14.1 6 7.8 0 13.8-4.4 13.8-11 0-6.2-4.7-8.4-11-9.5l-3.9-.7c-4.1-.7-5.7-1.8-5.7-4.2 0-2.8 2.7-4.8 6.9-4.8 3.6 0 6.9 1.1 10.2 3.6l3.6-5.2C42 11.5 37.3 10 32.3 10 23 10 16.8 15 16.8 22.4c0 5.9 4 8.6 10.4 9.7l4 .7c4.4.8 6 1.8 6 4.3 0 3-3 5-7.7 5-4.3 0-8.5-1.5-11.8-4.9Z"
    fill="#171717"
  />
</svg>
